<svg width="60" height="60" viewBox="0 0 60 60" fill="none" xmlns="http://www.w3.org/2000/svg">
<circle cx="30.0007" cy="29.9993" r="30" fill="url(#paint0_linear_12938_73089)"/>
<g clip-path="url(#clip0_12938_73089)">
<path d="M47.0323 31.907L45.7257 26.8136C45.6883 26.6638 45.5676 26.5473 45.4178 26.5098L40.3702 25.2655C40.3327 25.2573 40.2911 25.2531 40.2536 25.2531C40.133 25.2407 40.0081 25.2781 39.9166 25.3696L31.3984 33.8878L30.2708 29.4851C30.2333 29.3353 30.1126 29.2188 29.9628 29.1814L25.6267 28.1119L34.1407 19.5979C34.1907 19.548 34.2198 19.4856 34.2406 19.4231C34.2781 19.3399 34.2906 19.2442 34.2656 19.1526L32.959 14.0592C32.9215 13.9094 32.8008 13.7929 32.651 13.7555L27.6033 12.5112C27.5035 12.4863 27.4036 12.5029 27.3162 12.5445L27.312 12.5445C27.2871 12.557 27.2663 12.5737 27.2413 12.5903C27.2205 12.607 27.1914 12.6153 27.1747 12.6361L12.6435 27.159C12.6435 27.159 12.6186 27.2006 12.6019 27.2214C12.5104 27.3296 12.4771 27.4711 12.5187 27.6084L13.9294 32.5312C13.971 32.6727 14.0792 32.7809 14.2165 32.8184L18.9437 34.1749L20.3003 38.898C20.3419 39.0395 20.4501 39.1476 20.5874 39.1851L25.3313 40.5458L26.692 45.2897C26.7337 45.4312 26.8418 45.5394 26.9791 45.5769L31.9227 46.9958C31.9602 47.0082 32.0018 47.0126 32.0392 47.0126C32.0476 47.0126 32.056 47.0082 32.0684 47.0082C32.0684 47.0082 32.0726 47.0082 32.0767 47.0082C32.1849 47.0082 32.2931 46.9668 32.3763 46.8835L46.9116 32.3481C46.9615 32.2981 46.9908 32.2357 47.0117 32.1734C47.0491 32.0901 47.0616 31.9944 47.0367 31.9028L47.0323 31.907ZM40.5158 37.5538L39.4547 33.4134L41.8058 31.0664L45.8464 32.2274L40.52 37.558L40.5158 37.5538ZM32.2723 45.7974L31.2112 41.6569L35.464 37.4041L39.5046 38.5651L32.2723 45.7974ZM35.5514 36.1265L34.536 32.5894L38.1855 33.4883L35.5514 36.1224L35.5514 36.1265ZM38.7639 34.1041L39.696 37.737L36.1464 36.7174L38.7639 34.1L38.7639 34.1041ZM38.8846 32.7934L34.7483 31.7739L40.0623 26.4599L41.2107 30.4672L38.8846 32.7934ZM33.7205 32.7975L34.8689 36.8049L30.6369 41.0369L26.5006 40.0174L33.7205 32.7975ZM44.9725 27.2589L46.0337 31.3993L42.0222 30.2467L40.8737 26.2476L44.9725 27.2589ZM25.8764 39.4015L24.8152 35.261L26.3466 33.7296L30.3873 34.8906L25.8764 39.4015ZM26.434 32.4521L25.4187 28.9151L29.0681 29.8139L26.434 32.448L26.434 32.4521ZM30.5787 34.0667L27.0291 33.0472L29.6465 30.4297L30.5787 34.0625L30.5787 34.0667ZM25.7558 33.1346L24.2452 34.6452L20.1089 33.6257L24.6072 29.1273L25.7558 33.1346ZM20.9952 19.9974L22.1437 24.0048L17.8743 28.2742L13.7379 27.2547L20.9952 19.9974ZM27.2996 13.693L28.4481 17.7004L26.1594 19.9891L22.0231 18.9696L27.2996 13.693ZM27.7906 24.7496L26.7295 20.6132L29.0431 18.2996L33.0837 19.4564L27.7906 24.7496ZM22.8262 23.3264L21.8108 19.7893L25.4603 20.6882L22.8262 23.3223L22.8262 23.3264ZM26.0387 21.304L26.9708 24.9368L23.4254 23.9173L26.0429 21.2999L26.0387 21.304ZM22.743 24.5998L26.7836 25.7566L19.5138 33.0264L18.4527 28.8901L22.743 24.5998ZM32.2099 14.5003L33.271 18.6408L29.2595 17.4882L28.111 13.4891L32.2099 14.5003ZM13.5299 28.0744L17.1793 28.9733L14.5452 31.6074L13.5299 28.0703L13.5299 28.0744ZM15.1403 32.2066L17.7578 29.5891L18.6899 33.222L15.1445 32.2025L15.1403 32.2066ZM21.0452 38.4444L19.8967 34.4454L23.9955 35.4566L25.0566 39.5971L21.0452 38.4444ZM26.2925 40.8371L29.942 41.7359L27.3079 44.37L26.2925 40.833L26.2925 40.8371ZM27.9029 44.9693L30.5204 42.3518L31.4525 45.9846L27.9029 44.9651L27.9029 44.9693Z" fill="url(#paint1_linear_12938_73089)"/>
</g>
<path fill-rule="evenodd" clip-rule="evenodd" d="M30 58.4993C45.7401 58.4993 58.5 45.7394 58.5 29.9993C58.5 14.2592 45.7401 1.49927 30 1.49927C14.2599 1.49927 1.5 14.2592 1.5 29.9993C1.5 45.7394 14.2599 58.4993 30 58.4993ZM29.9993 56.9985C44.911 56.9985 56.9993 44.9102 56.9993 29.9985C56.9993 15.0869 44.911 2.99854 29.9993 2.99854C15.0876 2.99854 2.99927 15.0869 2.99927 29.9985C2.99927 44.9102 15.0876 56.9985 29.9993 56.9985Z" fill="url(#paint2_linear_12938_73089)"/>
<defs>
<linearGradient id="paint0_linear_12938_73089" x1="-8.37427" y1="59.2993" x2="100.608" y2="-25.2072" gradientUnits="userSpaceOnUse">
<stop offset="0.14815" stop-color="#19163B"/>
<stop offset="0.331609" stop-color="#19163B"/>
<stop offset="1" stop-color="#4C09A2"/>
</linearGradient>
<linearGradient id="paint1_linear_12938_73089" x1="14.8948" y1="35.1736" x2="44.8103" y2="24.2835" gradientUnits="userSpaceOnUse">
<stop stop-color="#29BCFA"/>
<stop offset="0.43" stop-color="#6464E4"/>
<stop offset="1" stop-color="#B45AFA"/>
</linearGradient>
<linearGradient id="paint2_linear_12938_73089" x1="-6.45625" y1="57.8343" x2="97.0766" y2="-22.4469" gradientUnits="userSpaceOnUse">
<stop stop-color="#4C09A2"/>
<stop offset="0.668391" stop-color="#19163B"/>
<stop offset="0.85185" stop-color="#19163B"/>
</linearGradient>
<clipPath id="clip0_12938_73089">
<rect width="35" height="35" fill="white" transform="translate(12.5002 12.4995)"/>
</clipPath>
</defs>
</svg>
